<mxfile host="www.draw.io" modified="2019-12-20T05:14:29.847Z" agent="Mozilla/5.0 (Macintosh; Intel Mac OS X 10_14_5) AppleWebKit/605.1.15 (KHTML, like Gecko) Version/12.1.1 Safari/605.1.15" etag="RqlA0Nh2Sncd1mr12Pqa" version="12.4.3" type="github" pages="1">
  <diagram name="Page-1" id="e7e014a7-5840-1c2e-5031-d8a46d1fe8dd">
    <mxGraphModel dx="1268" dy="810" grid="0" gridSize="10" guides="1" tooltips="1" connect="1" arrows="1" fold="1" page="1" pageScale="1" pageWidth="1169" pageHeight="826" background="#ffffff" math="0" shadow="1">
      <root>
        <mxCell id="0"/>
        <mxCell id="1" parent="0"/>
        <mxCell id="2" value="App端业务" style="swimlane;whiteSpace=wrap" parent="1" vertex="1">
          <mxGeometry x="164.5" y="128" width="225.5" height="472" as="geometry"/>
        </mxCell>
        <mxCell id="5" value="" style="ellipse;shape=startState;fillColor=#dae8fc;strokeColor=#6c8ebf;" parent="2" vertex="1">
          <mxGeometry x="100" y="40" width="30" height="30" as="geometry"/>
        </mxCell>
        <mxCell id="6" value="" style="edgeStyle=elbowEdgeStyle;elbow=horizontal;verticalAlign=bottom;endArrow=open;endSize=8;strokeColor=#666666;endFill=1;rounded=0;fillColor=#f5f5f5;" parent="2" source="5" target="7" edge="1">
          <mxGeometry x="100" y="40" as="geometry">
            <mxPoint x="115" y="110" as="targetPoint"/>
          </mxGeometry>
        </mxCell>
        <mxCell id="7" value="业务逻辑" style="" parent="2" vertex="1">
          <mxGeometry x="60" y="92" width="110" height="30" as="geometry"/>
        </mxCell>
        <mxCell id="8" value="Toast(&quot;网络开小差了&quot;)" style="fontSize=10;" parent="2" vertex="1">
          <mxGeometry x="62" y="354" width="110" height="32" as="geometry"/>
        </mxCell>
        <mxCell id="9" value="" style="endArrow=open;strokeColor=#6c8ebf;endFill=1;rounded=0;fillColor=#dae8fc;" parent="2" edge="1">
          <mxGeometry relative="1" as="geometry">
            <mxPoint x="115.5" y="123" as="sourcePoint"/>
            <mxPoint x="115.5" y="161" as="targetPoint"/>
          </mxGeometry>
        </mxCell>
        <mxCell id="EBCzvd2LmXdVVISyi6I2-41" value="判断网络状态" style="rhombus;fillColor=#ffe6cc;strokeColor=#d79b00;fontSize=11;" parent="2" vertex="1">
          <mxGeometry x="58" y="164" width="115" height="48" as="geometry"/>
        </mxCell>
        <mxCell id="EBCzvd2LmXdVVISyi6I2-43" value="有网络" style="text;html=1;align=center;verticalAlign=middle;resizable=0;points=[];;autosize=1;fontSize=10;" parent="2" vertex="1">
          <mxGeometry x="175.5" y="159" width="50" height="20" as="geometry"/>
        </mxCell>
        <mxCell id="15" value="收集日志" style="" parent="2" vertex="1">
          <mxGeometry x="60.5" y="288" width="110" height="30" as="geometry"/>
        </mxCell>
        <mxCell id="FhObpmLolqv0_ERmvv79-39" value="" style="endArrow=open;strokeColor=#6c8ebf;endFill=1;rounded=0;fillColor=#dae8fc;" edge="1" parent="2">
          <mxGeometry relative="1" as="geometry">
            <mxPoint x="116.5" y="319" as="sourcePoint"/>
            <mxPoint x="116.5" y="351" as="targetPoint"/>
          </mxGeometry>
        </mxCell>
        <mxCell id="3" value="网络层" style="swimlane;whiteSpace=wrap" parent="1" vertex="1">
          <mxGeometry x="390" y="128" width="230" height="472" as="geometry"/>
        </mxCell>
        <mxCell id="16" value="服务请求" style="" parent="3" vertex="1">
          <mxGeometry x="50" y="172" width="110" height="30" as="geometry"/>
        </mxCell>
        <mxCell id="18" value="日志上报" style="" parent="3" vertex="1">
          <mxGeometry x="50" y="291" width="110" height="28" as="geometry"/>
        </mxCell>
        <mxCell id="EBCzvd2LmXdVVISyi6I2-52" value="返回结果" style="text;html=1;align=center;verticalAlign=middle;resizable=0;points=[];;autosize=1;fontSize=10;" parent="3" vertex="1">
          <mxGeometry x="153" y="83" width="60" height="20" as="geometry"/>
        </mxCell>
        <mxCell id="19" value="" style="endArrow=open;strokeColor=#6c8ebf;endFill=1;rounded=0;fillColor=#dae8fc;" parent="3" edge="1">
          <mxGeometry relative="1" as="geometry">
            <mxPoint x="108" y="208" as="sourcePoint"/>
            <mxPoint x="108" y="287" as="targetPoint"/>
          </mxGeometry>
        </mxCell>
        <mxCell id="FhObpmLolqv0_ERmvv79-40" value="" style="edgeStyle=elbowEdgeStyle;elbow=horizontal;strokeColor=#6c8ebf;endArrow=open;endFill=1;rounded=0;fillColor=#dae8fc;" edge="1" parent="3">
          <mxGeometry width="100" height="100" relative="1" as="geometry">
            <mxPoint x="-53" y="304.5" as="sourcePoint"/>
            <mxPoint x="46" y="304.5" as="targetPoint"/>
            <Array as="points">
              <mxPoint x="-13" y="309.5"/>
              <mxPoint x="47.5" y="269.5"/>
              <mxPoint x="-198.5" y="377.5"/>
            </Array>
          </mxGeometry>
        </mxCell>
        <mxCell id="4" value="服务端" style="swimlane;whiteSpace=wrap" parent="1" vertex="1">
          <mxGeometry x="620" y="128" width="240" height="472" as="geometry"/>
        </mxCell>
        <mxCell id="33" value="链路存储" style="" parent="4" vertex="1">
          <mxGeometry x="74" y="291" width="110" height="28" as="geometry"/>
        </mxCell>
        <mxCell id="38" value="" style="ellipse;shape=endState;fillColor=#dae8fc;strokeColor=#6c8ebf;" parent="4" vertex="1">
          <mxGeometry x="114" y="351" width="30" height="30" as="geometry"/>
        </mxCell>
        <mxCell id="39" value="" style="endArrow=open;strokeColor=#6c8ebf;endFill=1;rounded=0;fillColor=#dae8fc;" parent="4" source="33" target="38" edge="1">
          <mxGeometry relative="1" as="geometry"/>
        </mxCell>
        <mxCell id="EBCzvd2LmXdVVISyi6I2-58" value="后端服务" style="" parent="4" vertex="1">
          <mxGeometry x="74" y="173" width="110" height="28" as="geometry"/>
        </mxCell>
        <mxCell id="EBCzvd2LmXdVVISyi6I2-42" value="" style="endArrow=open;strokeColor=#6c8ebf;endFill=1;rounded=0;fillColor=#dae8fc;" parent="1" edge="1">
          <mxGeometry relative="1" as="geometry">
            <mxPoint x="280.5" y="344" as="sourcePoint"/>
            <mxPoint x="281" y="412" as="targetPoint"/>
          </mxGeometry>
        </mxCell>
        <mxCell id="EBCzvd2LmXdVVISyi6I2-44" value="无网络" style="text;html=1;align=center;verticalAlign=middle;resizable=0;points=[];;labelBackgroundColor=#ffffff;fontSize=10;" parent="EBCzvd2LmXdVVISyi6I2-42" vertex="1" connectable="0">
          <mxGeometry x="-0.0909" y="2" relative="1" as="geometry">
            <mxPoint x="-25.73" y="-6.979999999999995" as="offset"/>
          </mxGeometry>
        </mxCell>
        <mxCell id="12" value="" style="edgeStyle=elbowEdgeStyle;elbow=horizontal;strokeColor=#6c8ebf;endArrow=open;endFill=1;rounded=0;fillColor=#dae8fc;" parent="1" edge="1">
          <mxGeometry width="100" height="100" relative="1" as="geometry">
            <mxPoint x="340" y="317" as="sourcePoint"/>
            <mxPoint x="439" y="317" as="targetPoint"/>
            <Array as="points">
              <mxPoint x="380" y="322"/>
              <mxPoint x="440.5" y="282"/>
              <mxPoint x="194.5" y="390"/>
            </Array>
          </mxGeometry>
        </mxCell>
        <mxCell id="32" value="" style="endArrow=classic;strokeColor=#6c8ebf;endFill=1;rounded=0;dashed=1;entryX=0;entryY=0.5;entryDx=0;entryDy=0;fillColor=#dae8fc;" parent="1" source="18" target="33" edge="1">
          <mxGeometry relative="1" as="geometry">
            <mxPoint x="594.3453608247423" y="557" as="targetPoint"/>
          </mxGeometry>
        </mxCell>
        <mxCell id="20" value="" style="endArrow=open;strokeColor=#6c8ebf;endFill=1;rounded=0;fillColor=#dae8fc;exitX=0.5;exitY=0;exitDx=0;exitDy=0;" parent="1" source="EBCzvd2LmXdVVISyi6I2-58" edge="1">
          <mxGeometry relative="1" as="geometry">
            <mxPoint x="520" y="430" as="sourcePoint"/>
            <mxPoint x="336" y="235" as="targetPoint"/>
            <Array as="points">
              <mxPoint x="749" y="235"/>
            </Array>
          </mxGeometry>
        </mxCell>
        <mxCell id="EBCzvd2LmXdVVISyi6I2-59" value="" style="edgeStyle=elbowEdgeStyle;elbow=horizontal;strokeColor=#6c8ebf;endArrow=open;endFill=1;rounded=0;entryX=0;entryY=0.5;entryDx=0;entryDy=0;fillColor=#dae8fc;exitX=1;exitY=0.5;exitDx=0;exitDy=0;" parent="1" target="EBCzvd2LmXdVVISyi6I2-58" edge="1" source="16">
          <mxGeometry width="100" height="100" relative="1" as="geometry">
            <mxPoint x="550" y="450" as="sourcePoint"/>
            <mxPoint x="650" y="449.5" as="targetPoint"/>
            <Array as="points">
              <mxPoint x="619" y="315"/>
              <mxPoint x="590" y="454.5"/>
              <mxPoint x="650.5" y="414.5"/>
              <mxPoint x="404.5" y="522.5"/>
            </Array>
          </mxGeometry>
        </mxCell>
      </root>
    </mxGraphModel>
  </diagram>
</mxfile>
